# xmcd
#
# Track frame offsets:
#	150
#	29171
#	49347
#	56172
#	56646
#	84025
#	105969
#	110494
#	110995
#	141510
#	178490
#
# Disc length: 2423 seconds
#
# Revision: 1
# Processed by: cddbd v1.5.1PL2 Copyright (c) Steve Scherf et al.
# Submitted via: EasyCDDAExtractor 9.0.0.1
#
DISCID=a709750b
DTITLE=Saxon - Apollo Theatre Glasgow 11-02-84
DYEAR=1984
DGENRE=Hard Rock
TTITLE0=Power And The Glory
TTITLE1=Princess Of The Night
TTITLE2=Commercials
TTITLE3=Announcer
TTITLE4=Crusader
TTITLE5=Strong Arm Of The Law
TTITLE6=Ronnie James Dio Budweiser Commercial
TTITLE7=Annoucer
TTITLE8=This Town Rocks
TTITLE9=Medley
TTITLE10=Outro
EXTD=
EXTT0=
EXTT1=
EXTT2=
EXTT3=
EXTT4=
EXTT5=
EXTT6=
EXTT7=
EXTT8=
EXTT9=
EXTT10=
PLAYORDER=
